<svg width="21" height="21" viewBox="0 0 21 21" fill="none" xmlns="http://www.w3.org/2000/svg">
<path d="M8.36765 6.00252C7.80311 6.00252 7.28566 6.00252 6.73828 6.00252C6.73828 4.32858 6.73828 2.67231 6.73828 0.981841C6.81915 0.974476 6.90754 0.959459 6.99594 0.959399C8.99084 0.958048 10.9858 0.967071 12.9806 0.950256C13.3389 0.947235 13.4332 1.05724 13.4287 1.40453C13.4109 2.78659 13.4058 4.16931 13.4312 5.55114C13.4385 5.95098 13.2885 6.01334 12.9385 6.00953C11.4308 5.99313 9.9227 6.00252 8.36765 6.00252Z" fill="#11696A"/>
<path d="M1.79884e-07 2.63256C2.74163e-07 2.05628 3.59706e-07 1.5271 3.59706e-07 0.959116C1.61549 0.959116 3.19444 0.954303 4.77315 0.971498C4.86443 0.972492 5.03128 1.15148 5.03237 1.24909C5.04907 2.73814 5.04108 4.22744 5.04657 5.71665C5.0476 5.9949 4.88213 6.00507 4.67548 6.00466C3.1395 6.00163 1.60351 6.00302 0 6.00302C0 4.88995 -8.6722e-09 3.7848 1.79884e-07 2.63256Z" fill="#11696A"/>
<path d="M20.1285 1.34907C20.1285 2.78851 20.1235 4.18418 20.1328 5.57976C20.1346 5.85876 20.0938 6.01231 19.7546 6.00896C18.2189 5.9938 16.6829 6.00233 15.1157 6.00233C15.1157 4.33453 15.1157 2.68007 15.1157 0.991484C15.1928 0.982393 15.2955 0.959899 15.3982 0.959732C16.8252 0.957414 18.2522 0.960088 19.6792 0.956323C19.9289 0.955664 20.1732 0.937945 20.1285 1.34907Z" fill="#11696A"/>
<path d="M0.0800244 6.98389C6.73731 6.98389 13.3946 6.98389 20.0936 6.98389C20.1071 7.15695 20.1265 7.29089 20.1266 7.42482C20.1282 11.5877 20.1264 15.7506 20.1312 19.9134C20.1315 20.2082 20.1373 20.4113 19.7245 20.4105C13.221 20.3982 6.71747 20.4018 0.213958 20.4013C0.154826 20.4013 0.0956953 20.3955 0 20.3906C0 15.9543 2.80971e-08 11.5444 0.0240367 7.09276C0.0800638 7.03879 0.0907141 7.01641 0.0800244 6.98389ZM14.3955 17.0315C14.8922 17.0315 15.3889 17.0315 15.8901 17.0315C15.8901 15.9106 15.8901 14.829 15.8901 13.7572C15.3331 13.7572 14.8085 13.7572 14.2527 13.7572C14.2527 14.8588 14.2527 15.9351 14.2256 17.0526C14.2529 17.046 14.2801 17.0395 14.3955 17.0315ZM7.70416 17.0316C8.20081 17.0316 8.69747 17.0316 9.20216 17.0316C9.20216 14.7814 9.20216 12.5787 9.20216 10.3669C8.6453 10.3669 8.10785 10.3669 7.54936 10.3669C7.54936 12.6038 7.54936 14.8114 7.52793 17.0649C7.55744 17.0549 7.58695 17.0449 7.70416 17.0316ZM5.87816 9.54374C5.87816 9.2817 5.87816 9.01965 5.87816 8.75543C5.29566 8.75543 4.76776 8.75543 4.22269 8.75543C4.22269 11.5134 4.22269 14.2508 4.22269 17.0014C4.77522 17.0014 5.31217 17.0014 5.87816 17.0014C5.87816 14.5265 5.87816 12.0814 5.87816 9.54374ZM11.529 17.0313C11.8695 17.0313 12.21 17.0313 12.5593 17.0313C12.5593 15.3428 12.5593 13.7038 12.5593 12.0669C11.993 12.0669 11.4536 12.0669 10.906 12.0669C10.906 12.9151 10.906 13.7309 10.906 14.5467C10.906 15.3707 10.906 16.1947 10.906 17.0313C11.1259 17.0313 11.2817 17.0313 11.529 17.0313Z" fill="#11696A"/>
</svg>
