<svg width="17" height="20" viewBox="0 0 17 20" fill="none" xmlns="http://www.w3.org/2000/svg">
<path d="M11.8416 19.999C9.11767 19.9985 6.43256 20.0033 3.7475 19.9957C1.64651 19.9898 0.304853 18.6273 0.292794 16.5302C0.283688 14.9466 0.470552 13.4052 1.15456 11.9534C1.81936 10.5425 2.90724 9.74828 4.47796 9.62711C4.94562 9.59108 5.29878 9.82462 5.65951 10.0521C6.11951 10.342 6.56701 10.6426 7.08193 10.8447C8.49201 11.3982 9.7997 11.1563 11.0585 10.4074C11.1587 10.3477 11.2543 10.2803 11.3524 10.2171C12.6228 9.39996 13.9335 9.50587 15.0681 10.5279C15.889 11.2674 16.3295 12.2304 16.6016 13.2728C16.8906 14.3798 17.019 15.5121 16.9977 16.6573C16.9696 18.1702 16.1498 19.3283 14.7752 19.8049C14.4194 19.9282 14.0511 19.9992 13.6706 19.9973C13.0739 19.9945 12.4773 19.9981 11.8416 19.999Z" fill="#11696A"/>
<path d="M13.3267 5.38168C13.0179 7.44195 11.8979 8.84422 9.96287 9.4547C6.82925 10.4434 4.00333 8.20715 3.70032 5.38925C3.41668 2.75147 5.35378 0.264716 7.95826 0.0234704C10.9514 -0.253774 13.3648 1.95725 13.3435 4.95777C13.3426 5.08734 13.3359 5.21687 13.3267 5.38168Z" fill="#11696A"/>
</svg>
