<svg version="1.1" id="Calque_1" xmlns="http://www.w3.org/2000/svg" x="0" y="0" style="enable-background:new 0 0 152 40" width="152" height="40" xml:space="preserve"><style>.st0{fill:#001373}.st1{fill:#ff9e1b}</style><path class="st0" d="M10 30.7c.2.2.5.3.8.4.3 0 .6-.1.8-.4.2-.2.3-.5.4-.8v-14l.1-.1 9.4-14c.1-.2.2-.4.2-.6 0-.3-.1-.6-.3-.8-.3-.3-.6-.4-.9-.4-.4 0-.8.2-1 .5l-8.6 13L2.2.5C1.9.2 1.5 0 1.1 0 .8 0 .5.2.3.4c-.2.2-.3.5-.3.8 0 .2.1.4.2.6l9.4 14.1v14c.1.3.2.6.4.8zM124.2 0c-.3 0-.6.1-.8.3-.2.2-.3.5-.3.8v28.7c0 .3.1.6.3.8.2.2.5.3.8.4.3 0 .6-.1.8-.4.2-.2.3-.5.3-.8V1.2c0-.3-.1-.6-.3-.8-.2-.3-.5-.4-.8-.4zM152 19.4c0-1.5-.3-3.1-.9-4.5-1.2-2.8-3.4-5.1-6.3-6.3-.8-.3-1.6-.6-2.5-.7-.7-.1-1.3-.2-2-.2h-.1c-1.3 0-2.6.2-3.8.6l-.7.3c-1.4.6-2.6 1.4-3.7 2.5-.4.4-.8.9-1.1 1.3-.6.7-1 1.6-1.4 2.4-1.2 2.9-1.2 6.2 0 9.1.3.5.5 1.1.8 1.6.1.1.1.2.2.3 0 0 0 .1.1.1.2.3.4.6.6.8.1.1.1.2.2.2.1.1.1.2.2.2l.3.3c1.1 1.1 2.3 1.9 3.7 2.5 1.4.6 3 .9 4.5.9s3-.3 4.4-.9c1.4-.6 2.6-1.4 3.7-2.4.5-.4.9-.9 1.2-1.5v3.6c0 .3.1.6.3.8.2.2.5.3.8.4.3 0 .6-.1.8-.4.2-.2.3-.5.3-.8V20c.3-.2.3-.4.4-.6zm-2.4 0c-.1 1.3-.4 2.6-.9 3.8-.5 1.1-1.2 2.1-2 3-.9.8-1.9 1.5-3 1.9-1.1.5-2.3.7-3.5.7-1.2 0-2.4-.2-3.6-.7-1.1-.5-2.1-1.1-3-2-.8-.9-1.5-1.9-2-3s-.7-2.3-.7-3.5c0-1.2.3-2.5.7-3.6.5-1.1 1.1-2.1 2-3 .9-.8 1.9-1.5 3-2s2.3-.7 3.6-.7c1.2 0 2.5.3 3.6.7 1.1.5 2.1 1.1 3 2 .9.9 1.5 1.9 2 3 .5.9.8 2.1.8 3.4zM118.9 14.9c-1.2-2.8-3.4-5.1-6.3-6.3-.8-.3-1.6-.6-2.5-.7-.7-.1-1.3-.2-2-.2h-.1c-1.3 0-2.6.2-3.8.6l-.7.3c-1.4.6-2.7 1.4-3.7 2.5-.4.4-.8.9-1.1 1.3-.6.8-1 1.6-1.4 2.4-1.2 2.9-1.2 6.2 0 9.1.2.5.5 1.1.8 1.6 0 .1.1.2.2.3s0 .1.1.1l.6.9c.1.1.1.2.2.2s.1.2.2.2l.3.3c1.1 1.1 2.3 1.9 3.7 2.5 1.4.6 3 .9 4.5.9s3-.3 4.4-.9c1.4-.6 2.6-1.4 3.7-2.4.5-.4.9-.9 1.2-1.5v3.6c0 .3.1.6.3.8.2.2.5.3.8.4.3 0 .6-.1.8-.4.2-.2.3-.5.3-.8V20c0-.2.1-.4.1-.7.3-1.5 0-3-.6-4.4zm-1.5 4.4c-.1 1.3-.4 2.6-.8 3.8-.5 1.1-1.2 2.1-2 3-.9.8-1.9 1.5-3 1.9-1.1.5-2.3.7-3.5.7-1.2 0-2.4-.2-3.6-.7-1.1-.5-2.1-1.1-2.9-2-.8-.9-1.5-1.9-2-3s-.7-2.3-.7-3.5c0-1.2.3-2.5.7-3.6.5-1.1 1.1-2.1 2-3 .9-.8 1.9-1.5 2.9-2 1.1-.5 2.3-.7 3.6-.7 1.2 0 2.5.3 3.6.7 1.1.5 2.1 1.1 3 2 .9.9 1.5 1.9 2 3 .5 1 .7 2.2.7 3.4zM93.2 19.4c0-1.5-.3-3.1-.9-4.5-1.2-2.9-3.4-5.1-6.3-6.3a11.7 11.7 0 0 0-9 0s-.1 0-.1.1-.1.1-.1.1c-1.5.6-2.8 1.6-3.8 2.8l-.6.7V8.8c0-.3-.2-.6-.4-.8-.2-.2-.5-.3-.8-.3-.3 0-.6.1-.8.3-.2.2-.3.5-.3.8v30.1c0 .3.1.6.3.8.4.4 1.2.5 1.6 0 .2-.2.3-.5.3-.8V26.4c.3.4.6.8 1 1.2 1.1 1.1 2.3 1.9 3.7 2.5 1.4.6 3 .9 4.5.9s3.1-.3 4.5-.9c1.4-.6 2.6-1.4 3.7-2.4s1.9-2.3 2.5-3.7c.1-.2.2-.4.3-.7.3-.8.5-1.6.6-2.5.1-.4.1-.9.1-1.4zm-21 0c0-1.2.3-2.5.8-3.6s1.1-2.1 2-3c.9-.8 1.9-1.5 3-2s2.3-.7 3.6-.7c1.2 0 2.5.3 3.6.7 1.1.5 2.1 1.1 3 2 .8.9 1.5 1.9 2 3s.7 2.3.7 3.5c-.1 1.3-.4 2.6-.9 3.8-.5 1.1-1.2 2.1-2 3-.8.8-1.8 1.5-2.8 1.9-1.1.5-2.3.7-3.6.7-1.2 0-2.4-.2-3.5-.7-1.1-.5-2.1-1.2-2.9-2-.8-.9-1.5-1.9-2-3-.4-.9-.7-2-.8-3-.1-.1-.2-.4-.2-.6z"/><path class="st1" d="M65.7 14.9c-1.2-2.8-3.4-5.1-6.3-6.3-2.9-1.2-6.2-1.2-9.1 0-1.4.6-2.7 1.4-3.7 2.5-1.1 1.1-1.9 2.4-2.5 3.8-1.2 2.9-1.2 6.2 0 9.1.6 1.4 1.4 2.7 2.5 3.7 1.1 1.1 2.3 1.9 3.7 2.5 1.4.6 3 .9 4.5.9s3-.3 4.4-.9c1.4-.6 2.6-1.4 3.7-2.4s1.9-2.3 2.5-3.7c.6-1.5 1-3.1 1.1-4.7.2-1.5-.2-3.1-.8-4.5zm-2 8.4c-.5 1.2-1.2 2.2-2.1 3.1-.9.9-1.9 1.6-3.1 2.1-1.1.5-2.4.7-3.6.7-1.3 0-2.5-.2-3.7-.7-1.2-.5-2.2-1.2-3.1-2.1-.9-.9-1.6-1.9-2.1-3.1-.5-1.2-.8-2.4-.7-3.7 0-1.3.2-2.6.7-3.8.5-1.2 1.2-2.2 2.1-3.1.9-.9 1.9-1.6 3.1-2.1.1 0 .2-.1.3-.1-.4.5-.7 1-.9 1.5-.5 1.3-.5 2.7 0 3.9.5 1.3 1.6 2.3 2.8 2.7.5.2 1 .3 1.6.3.6 0 1.2-.1 1.7-.3 1.1-.4 1.9-1.3 2.3-2.4.7-1.8-.1-4-2-4.7-.8-.3-1.6-.3-2.4 0-.8.3-1.3 1-1.6 1.8-.2.5 0 1 .4 1.3s1 0 1.3-.4v-.1c.1-.3.4-.5.6-.6.3-.1.6-.1.9 0 .9.3 1.4 1.3 1 2.2-.2.6-.7 1.1-1.3 1.3-.6.2-1.3.2-1.8 0-.8-.3-1.5-.9-1.8-1.7-.3-.8-.3-1.7 0-2.5.8-1.8 2.7-2.9 4.6-2.6.2 0 .4.1.6.2.1 0 .1.1.2.1h.2l.6.2c1.2.5 2.2 1.2 3.1 2.1 1.8 1.8 2.8 4.2 2.9 6.8 0 1.2-.3 2.5-.8 3.7z"/><path class="st1" d="M59.7 22.5c.2 0 .5-.1.6-.3.2-.2.3-.4.3-.6 0-.2-.1-.5-.3-.6-.2-.2-.4-.3-.6-.3-.2 0-.5.1-.6.3-.2.2-.3.4-.3.6 0 .2.1.5.3.6.1.2.3.3.6.3zM50.3 22.5c.2 0 .5-.1.6-.3.2-.2.3-.4.3-.6 0-.2-.1-.5-.3-.6-.2-.2-.4-.3-.6-.3-.2 0-.5.1-.7.3-.2.2-.3.4-.3.6 0 .2.1.5.3.6.3.2.5.3.7.3zM57.6 24.6c-.1 0-.2 0-.3.1-1.2 1.3-3.3 1.3-4.6.1l-.1-.1c-.2-.2-.5-.2-.7 0-.1.1-.2.3-.2.5 0 .1 0 .3.1.4l.1.1c.8.8 1.8 1.3 3 1.4 1.1 0 2.2-.4 3-1.2.2-.1.3-.3.2-.5.2-.5-.1-.8-.5-.8zM33 22.5c.2 0 .5-.1.7-.2.2-.2.3-.4.3-.6 0-.2-.1-.5-.3-.6-.2-.2-.4-.3-.6-.3-.2 0-.5.1-.6.2-.2.2-.3.4-.3.6 0 .2.1.5.3.6 0 .2.3.3.5.3zM23.6 22.5c.2 0 .5-.1.6-.2.2-.2.3-.4.3-.6 0-.2-.1-.5-.2-.6-.2-.2-.4-.3-.6-.3-.2 0-.5.1-.7.2-.2.2-.3.4-.3.6 0 .2.1.5.2.6.2.2.4.3.7.3zM30.9 24.6c-.1 0-.2 0-.3.1-1.3 1.3-3.3 1.3-4.6 0-.1-.1-.2-.2-.3-.2-.3 0-.5.3-.5.6 0 .1 0 .3.1.4l.1.1c.8.8 1.9 1.2 3 1.2s2.2-.4 3-1.2c.2-.1.3-.3.2-.5-.1-.3-.4-.5-.7-.5zM34.7 16.9c-.2-.5-.7-.8-1.2-.6-.1 0-.2.1-.4.1-.6 0-1.2-.5-1.2-1.2 0-.2 0-.3.1-.5.2-.5 0-1-.5-1.3-.5-.2-1 0-1.3.5-.2.4-.3.8-.3 1.2v.3h-.3c-.1.1-.3.1-.4.1-.6 0-1.1-.5-1.1-1.1 0-.1 0-.3.1-.4.2-.5 0-1-.4-1.3-.5-.2-1 0-1.3.4v.1c-.2.4-.3.8-.3 1.2 0 .4.1.8.3 1.2h-.2c-.1 0-.3.1-.4.1-.6 0-1.2-.5-1.2-1.1 0-.1 0-.3.1-.4.2-.5 0-1-.5-1.2-.5-.2-1 .1-1.2.5-.2.4-.3.8-.3 1.2 0 1.7 1.3 3 3 3 .3 0 .7-.1 1-.2.3-.1.5-.3.6-.6.5.4 1.1.6 1.8.6.3 0 .7-.1 1-.2.1-.1.3-.1.4-.3.6.8 1.5 1.3 2.5 1.3.3 0 .7-.1 1-.2.4-.1.7-.6.6-1.2z"/><path class="st1" d="M48.8 4.1c-.3-.3-.8-.4-1.2-.2-.9.5-1.8.7-2.8.7-1-.1-1.9-.3-2.8-.8-.9-.5-1.9-.8-2.9-.8-.7 0-1.4.2-2 .5-2.6 1.2-3 3.8-3 5.7l-1.2-.6c-4.4-1.9-9.5-.9-12.8 2.5-1.1 1.1-1.9 2.4-2.5 3.8-1.2 2.9-1.2 6.2 0 9.1.6 1.4 1.4 2.7 2.5 3.7 1.1 1.1 2.3 1.9 3.7 2.5 1.4.6 3 .9 4.5.9s3-.3 4.4-.9c1.4-.6 2.6-1.4 3.7-2.4s1.9-2.3 2.5-3.7c.6-1.5 1-3.1 1-4.7 0-1.5-.3-3-.9-4.5-.4-.9-.8-1.7-1.4-2.5 7 0 11-6.8 11.2-7.1.3-.3.3-.8 0-1.2zM37.1 23.3c-.5 1.2-1.2 2.2-2.1 3.1-.9.9-1.9 1.6-3.1 2.1-1.1.5-2.4.7-3.6.7-1.3 0-2.5-.2-3.7-.7-1.2-.5-2.2-1.2-3.1-2.1-.9-.9-1.6-1.9-2.1-3.1-.5-1.2-.7-2.4-.7-3.7 0-1.3.3-2.6.8-3.8.5-1.2 1.2-2.2 2.1-3.1.9-.9 1.9-1.6 3.1-2.1 1.2-.5 2.4-.7 3.7-.7 1.3 0 2.6.2 3.8.8 3.6 1.5 5.9 5 6 8.9-.2 1.2-.5 2.5-1.1 3.7zm.5-12.9c-.5 0-1 0-1.5-.1-.2-1.2-.3-3.9 1.8-5 .4-.2.8-.3 1.2-.3.7.1 1.5.3 2.1.6 1.1.6 2.4.9 3.7.9h.6c-1.7 1.8-4.4 3.9-7.9 3.9z"/></svg>