<svg width="20" height="20" viewBox="0 0 20 20" fill="none" xmlns="http://www.w3.org/2000/svg">
<path d="M16.7496 19.9999C11.8898 19.9999 7.07181 20.0002 2.25375 19.9998C0.791683 19.9996 0.00060271 19.2026 0.000446636 17.7303C0.000109404 14.551 -0.000487248 11.3716 0.000731769 8.19224C0.00125941 6.81637 0.821768 6.0034 2.20726 6.00161C2.92774 6.00069 3.64821 6.00145 4.4085 6.00145C4.33994 4.03702 5.03111 2.41083 6.56769 1.18975C7.6884 0.299149 8.98752 -0.0873496 10.414 0.016471C13.2858 0.225487 15.7413 2.67486 15.5965 6.00145C16.3143 6.00145 17.031 6.00109 17.7478 6.00153C19.1938 6.00241 19.999 6.79848 19.9994 8.23064C20.0002 11.4101 20.0002 14.5894 19.9994 17.7688C19.999 19.2014 19.1935 19.9988 17.7493 19.9999C17.4299 20.0002 17.1106 19.9999 16.7496 19.9999ZM18.2096 7.36785C17.3083 7.35683 16.4069 7.33732 15.5058 7.34697C15.4078 7.34802 15.2682 7.49933 15.2212 7.61161C14.2924 9.83416 12.3144 11.1899 9.98752 11.1855C7.68037 11.1811 5.68688 9.81808 4.79804 7.62217C4.71384 7.41414 4.62846 7.32153 4.38633 7.32765C3.6231 7.34692 2.85905 7.33039 2.09538 7.33631C1.58557 7.34025 1.33553 7.59321 1.3351 8.11064C1.33246 11.3735 1.3323 14.6364 1.3353 17.8992C1.33577 18.4131 1.58842 18.6649 2.10435 18.6651C7.367 18.6675 12.6297 18.6675 17.8923 18.6652C18.4105 18.665 18.6641 18.4155 18.6646 17.9026C18.6678 14.6398 18.6649 11.377 18.6683 8.11408C18.6686 7.79421 18.5727 7.54429 18.2096 7.36785ZM12.437 2.10243C10.5594 0.884864 8.2748 1.14537 6.84356 2.74024C5.53529 4.1981 5.36305 6.5464 6.47169 7.91797C7.4754 7.0271 8.64352 6.55631 9.99304 6.55385C11.3532 6.55137 12.5299 7.02977 13.5416 7.92609C14.8271 6.09497 14.3604 3.59054 12.437 2.10243Z" fill="#11696A"/>
<path d="M7.00163 11.7259C9.48405 11.7259 11.9248 11.7227 14.3655 11.7276C15.2918 11.7295 16.0023 12.2311 16.2414 13.0285C16.5914 14.1959 15.7573 15.3631 14.5397 15.3941C13.9299 15.4096 13.3194 15.3986 12.7092 15.3987C10.3517 15.3989 7.99416 15.4012 5.63664 15.3976C4.50015 15.3959 3.68114 14.6266 3.67811 13.5716C3.67509 12.5244 4.50209 11.7402 5.62867 11.7268C6.07238 11.7216 6.5162 11.7259 7.00163 11.7259ZM12.3756 14.0587C13.0691 14.0583 13.7626 14.0576 14.4561 14.0579C14.7721 14.0579 14.9676 13.8914 14.9815 13.5862C14.9957 13.2747 14.7933 13.1075 14.4919 13.0708C14.3961 13.0591 14.298 13.0656 14.2009 13.0656C11.3991 13.0654 8.59733 13.0647 5.79552 13.0673C5.64481 13.0675 5.48216 13.0635 5.3459 13.1161C5.0598 13.2264 4.94344 13.4473 5.05862 13.7511C5.16816 14.04 5.41296 14.0608 5.67612 14.0605C7.88148 14.0573 10.0869 14.0587 12.3756 14.0587Z" fill="#11696A"/>
<path d="M9.60586 16.095C10.4993 16.0955 11.3515 16.0936 12.2036 16.0975C12.5435 16.099 12.8316 16.2648 12.8704 16.6071C12.8963 16.8349 12.7661 17.112 12.6335 17.3166C12.5643 17.4235 12.3392 17.4615 12.184 17.4626C10.741 17.4731 9.2977 17.4742 7.85459 17.4656C7.40179 17.4629 7.12053 17.1772 7.12669 16.7741C7.13277 16.3753 7.41573 16.1074 7.87398 16.098C8.4373 16.0865 9.00098 16.0952 9.60586 16.095Z" fill="#11696A"/>
<path d="M8.94784 5.68368C8.04536 4.97799 7.80371 3.97566 8.29776 3.08001C8.7688 2.22598 9.79296 1.84983 10.6983 2.19833C11.7488 2.60268 12.2453 3.82373 11.7775 4.85241C11.2903 5.92367 10.068 6.29266 8.94784 5.68368Z" fill="#11696A"/>
</svg>
