<svg width="220" height="29" viewBox="0 0 220 29" fill="none" xmlns="http://www.w3.org/2000/svg">
<path d="M176.258 5.27384C175.85 5.27384 175.385 5.24882 174.875 5.20128C174.449 5.16125 173.989 5.10371 173.496 5.02866V0.265193C173.926 0.177629 174.357 0.115084 174.78 0.0750546C175.305 0.0250182 175.813 0 176.296 0C176.751 0 177.254 0.0250182 177.792 0.0725528C178.22 0.112582 178.645 0.175127 179.055 0.260189V5.02866C178.542 5.10371 178.067 5.16125 177.639 5.20378C177.131 5.24882 176.666 5.27384 176.258 5.27384Z" fill="#46D764"/>
<path d="M23.9249 28.5708C23.5096 28.5708 23.0418 28.5533 22.5339 28.5158C22.1111 28.4857 21.6407 28.4257 21.1279 28.3356V18.1557C21.1279 16.7372 20.8827 15.734 20.3773 15.086C19.8569 14.4205 19.0163 14.0828 17.878 14.0828C17.5027 14.0828 17.13 14.1228 16.7697 14.2028C16.4119 14.2829 16.1668 14.3504 16.0217 14.408L15.7164 14.5306L15.799 14.8508C16.0141 15.6864 16.1242 16.6621 16.1242 17.7454V28.3356C15.6114 28.4257 15.1385 28.4857 14.7182 28.5158C14.2078 28.5533 13.7525 28.5708 13.3622 28.5708C12.9469 28.5708 12.4791 28.5533 11.9712 28.5158C11.5484 28.4857 11.0781 28.4257 10.5652 28.3356V18.1557C10.5652 16.7422 10.3325 15.7415 9.85717 15.096C9.35931 14.4255 8.5312 14.0853 7.39037 14.0853C7.09766 14.0853 6.78493 14.1128 6.45469 14.1653C5.97184 14.2429 5.81923 14.3104 5.72666 14.373L5.55904 14.483V28.3356C5.04617 28.4257 4.57333 28.4857 4.15302 28.5158C3.64265 28.5533 3.18732 28.5708 2.79703 28.5708C2.38173 28.5708 1.91389 28.5533 1.40602 28.5158C0.983215 28.4857 0.512873 28.4257 0 28.3356V10.5852C0.803084 10.32 1.76128 10.0573 2.84707 9.80214C4.03293 9.52444 5.56405 9.38184 7.39037 9.38184C8.3836 9.38184 9.38182 9.46189 10.355 9.61951C11.3007 9.77462 12.1864 10.0899 12.9869 10.5627L13.1621 10.6653L13.3447 10.5752C13.9702 10.2625 14.7132 9.98227 15.5588 9.7421C16.3919 9.50442 17.3501 9.38434 18.4059 9.38434C19.3491 9.38434 20.3398 9.47691 21.3455 9.65954C22.3187 9.83467 23.2094 10.2099 23.995 10.7703C24.773 11.3283 25.4235 12.1463 25.9289 13.2046C26.4367 14.2679 26.6944 15.7089 26.6944 17.4852V28.3356C26.1815 28.4257 25.7087 28.4857 25.2884 28.5158C24.7705 28.5533 24.3152 28.5708 23.9249 28.5708Z" fill="#14284B"/>
<path d="M103.475 28.5707C102.422 28.5707 101.464 28.4506 100.628 28.213C99.7825 27.9728 99.0395 27.6901 98.414 27.3799L98.2314 27.2898L98.0563 27.3924C97.2532 27.8627 96.3676 28.1804 95.4244 28.3356C94.4512 28.4932 93.4529 28.5732 92.4597 28.5732C90.6309 28.5732 89.1023 28.4331 87.9164 28.1529C86.8281 27.8977 85.8724 27.635 85.0693 27.3699V9.61945C85.5822 9.52938 86.0525 9.46934 86.4754 9.43932C86.9857 9.40179 87.4536 9.38428 87.8664 9.38428C88.2567 9.38428 88.712 9.40179 89.2224 9.43932C89.6427 9.46934 90.1155 9.52938 90.6284 9.61945V23.472L90.796 23.5821C90.8886 23.6446 91.0412 23.7122 91.5215 23.7898C91.8518 23.8423 92.167 23.8698 92.4597 23.8698C93.6005 23.8698 94.4311 23.5296 94.9265 22.8591C95.4018 22.2136 95.6345 21.2129 95.6345 19.7968V9.61945C96.1474 9.52938 96.6202 9.46934 97.0405 9.43932C97.5484 9.40179 98.0188 9.38428 98.4316 9.38428C98.8218 9.38428 99.2772 9.40179 99.7875 9.43932C100.208 9.46934 100.681 9.52938 101.194 9.61945V20.2097C101.194 21.2929 101.083 22.2661 100.868 23.1043L100.786 23.4245L101.093 23.5471C101.239 23.6046 101.484 23.6722 101.842 23.7522C102.202 23.8323 102.575 23.8723 102.95 23.8723C104.086 23.8723 104.929 23.5346 105.449 22.8691C105.955 22.2211 106.202 21.2179 106.202 19.7994V9.61945C106.715 9.52938 107.185 9.46934 107.608 9.43932C108.119 9.40179 108.586 9.38428 108.999 9.38428C109.39 9.38428 109.845 9.40179 110.355 9.43932C110.778 9.46934 111.248 9.52938 111.761 9.61945V20.4698C111.761 22.2461 111.504 23.6872 110.996 24.7505C110.49 25.8087 109.84 26.6268 109.062 27.1847C108.276 27.7476 107.386 28.1204 106.412 28.2955C105.407 28.4782 104.418 28.5707 103.475 28.5707Z" fill="#46D764"/>
<path d="M39.3012 28.7582C37.5649 28.7582 36.0588 28.5156 34.8254 28.0377C33.6045 27.5624 32.5963 26.8994 31.8307 26.0613C31.0627 25.2232 30.4873 24.2074 30.1195 23.0466C29.7467 21.8707 29.5591 20.5648 29.5591 19.1637C29.5591 17.7902 29.7542 16.4843 30.1395 15.2834C30.5198 14.0926 31.0977 13.0443 31.8583 12.1662C32.6138 11.2905 33.577 10.59 34.7153 10.0796C35.8562 9.56927 37.2121 9.30908 38.7433 9.30908C40.0042 9.30908 41.1425 9.52424 42.1232 9.94955C43.1014 10.3749 43.9445 10.9653 44.63 11.7083C45.313 12.4489 45.8459 13.362 46.2137 14.4153C46.584 15.4786 46.7716 16.6494 46.7716 17.8953C46.7716 18.5458 46.7416 19.1412 46.6815 19.6641C46.639 20.0369 46.5965 20.3696 46.5589 20.6573H35.0456L35.1707 21.1302C35.4684 22.241 36.0088 23.0441 36.7743 23.5169C37.5149 23.9747 38.4931 24.2074 39.6789 24.2074C40.422 24.2074 41.2626 24.1174 42.1783 23.9397C42.9838 23.7846 43.7894 23.5544 44.5775 23.2592C44.8527 23.8196 45.0979 24.4751 45.3105 25.2081C45.5382 25.9862 45.6733 26.8043 45.7158 27.6449C43.6268 28.383 41.4727 28.7582 39.3012 28.7582ZM38.5181 13.2995C37.6325 13.2995 36.8594 13.5822 36.2189 14.1376C35.5735 14.698 35.1907 15.5611 35.0831 16.6995L35.0431 17.1098H41.828L41.8055 16.712C41.7504 15.7638 41.4527 14.9557 40.9173 14.3102C40.3569 13.6397 39.5514 13.2995 38.5181 13.2995Z" fill="#14284B"/>
<path d="M59.1478 28.7582C57.4116 28.7582 55.9055 28.5156 54.6721 28.0377C53.4512 27.5624 52.443 26.8994 51.6774 26.0613C50.9094 25.2232 50.3339 24.2074 49.9662 23.0466C49.5934 21.8707 49.4058 20.5648 49.4058 19.1637C49.4058 17.7902 49.6009 16.4843 49.9862 15.2834C50.3665 14.0926 50.9444 13.0443 51.7049 12.1662C52.4605 11.2905 53.4237 10.59 54.562 10.0796C55.7028 9.56927 57.0588 9.30908 58.5899 9.30908C59.8509 9.30908 60.9892 9.52424 61.9699 9.94955C62.9481 10.3749 63.7912 10.9653 64.4742 11.7083C65.1572 12.4514 65.6901 13.362 66.0579 14.4153C66.4281 15.4786 66.6158 16.6494 66.6158 17.8953C66.6158 18.5458 66.5858 19.1412 66.5257 19.6641C66.4807 20.0419 66.4407 20.3746 66.4031 20.6573H54.8897L55.0173 21.1302C55.3151 22.241 55.8555 23.0441 56.621 23.5169C57.3616 23.9747 58.3398 24.2074 59.5256 24.2074C60.2687 24.2074 61.1093 24.1174 62.0249 23.9397C62.8305 23.7846 63.6361 23.5544 64.4242 23.2592C64.6969 23.8196 64.9446 24.4726 65.1597 25.2081C65.3874 25.9862 65.5225 26.8043 65.565 27.6449C63.4735 28.383 61.3169 28.7582 59.1478 28.7582ZM58.3623 13.2995C57.4766 13.2995 56.7036 13.5822 56.0631 14.1376C55.4176 14.698 55.0349 15.5611 54.9273 16.6995L54.8872 17.1098H61.6722L61.6497 16.712C61.5946 15.7638 61.2969 14.9557 60.7615 14.3102C60.2036 13.6397 59.3955 13.2995 58.3623 13.2995Z" fill="#14284B"/>
<path d="M123.3 28.7211C122.039 28.7211 120.866 28.6035 119.815 28.3759C118.784 28.1507 117.891 27.7879 117.163 27.2926C116.447 26.8072 115.88 26.1593 115.477 25.3612C115.071 24.5606 114.864 23.5549 114.864 22.3765C114.864 21.2382 115.106 20.2875 115.587 19.557C116.075 18.8139 116.71 18.2135 117.476 17.7732C118.256 17.3228 119.134 17.0051 120.083 16.8275C121.051 16.6448 122.006 16.5548 122.927 16.5548H125.602L125.579 16.1595C125.549 15.6391 125.399 15.1913 125.131 14.836C124.871 14.4883 124.533 14.2181 124.131 14.0304C123.75 13.8528 123.325 13.7302 122.87 13.6627C122.427 13.5976 121.969 13.5651 121.509 13.5651C120.896 13.5651 120.17 13.6352 119.355 13.7753C118.637 13.8978 117.893 14.088 117.138 14.3382C116.975 14.0254 116.838 13.7427 116.718 13.4825C116.568 13.1598 116.45 12.8246 116.367 12.4893C116.285 12.1491 116.225 11.7888 116.19 11.421C116.16 11.1183 116.142 10.7781 116.137 10.4028C117.223 10.0551 118.316 9.78736 119.39 9.60472C120.545 9.40958 121.599 9.31201 122.519 9.31201C123.77 9.31201 124.916 9.46462 125.922 9.76234C126.91 10.0576 127.761 10.5129 128.451 11.1208C129.137 11.7263 129.675 12.5143 130.05 13.46C130.428 14.4207 130.62 15.5866 130.62 16.925V27.5828C129.742 27.828 128.689 28.0757 127.485 28.3208C126.167 28.5835 124.761 28.7211 123.3 28.7211ZM123.077 19.7596C122.139 19.7596 121.331 19.9673 120.675 20.3776C119.965 20.8229 119.602 21.4558 119.602 22.2639C119.602 22.8469 119.742 23.3197 120.018 23.6725C120.278 24.0052 120.61 24.2629 121.001 24.438C121.368 24.6006 121.769 24.7132 122.189 24.7657C122.584 24.8183 122.96 24.8433 123.3 24.8433C123.54 24.8433 123.883 24.8183 124.316 24.7657C124.761 24.7132 125.081 24.6607 125.296 24.6081L125.579 24.5356V19.7596H123.077Z" fill="#46D764"/>
<path d="M140.372 28.7587C139.206 28.7587 138.111 28.6736 137.112 28.5035C136.197 28.3459 135.218 28.0857 134.2 27.7229C134.338 26.2819 134.733 24.8033 135.374 23.3222C136.089 23.6299 136.837 23.8676 137.608 24.0327C138.501 24.2229 139.406 24.3204 140.3 24.3204C140.61 24.3204 140.933 24.3079 141.263 24.2829C141.618 24.2554 141.938 24.1928 142.216 24.0953C142.511 23.9927 142.761 23.8476 142.962 23.6624C143.199 23.4423 143.324 23.1396 143.324 22.7893C143.324 22.4616 143.204 22.0137 142.631 21.726C142.291 21.5559 141.893 21.4033 141.448 21.2732L138.904 20.5627C137.655 20.2099 136.607 19.602 135.786 18.7589C134.991 17.9408 134.585 16.7975 134.585 15.3614C134.585 14.4533 134.773 13.6176 135.143 12.8771C135.514 12.1341 136.044 11.4936 136.717 10.9707C137.4 10.4403 138.218 10.03 139.154 9.74483C140.097 9.45712 141.16 9.31201 142.311 9.31201C143.232 9.31201 144.253 9.40958 145.346 9.60472C146.349 9.78235 147.355 10.035 148.338 10.3578C148.273 11.0433 148.123 11.7763 147.89 12.5444C147.662 13.2974 147.407 13.9829 147.13 14.5858C146.512 14.3557 145.789 14.143 144.976 13.9504C144.005 13.7202 143.097 13.6051 142.276 13.6051C140.515 13.6051 140.147 14.3382 140.147 14.9511C140.147 15.2413 140.252 15.6416 140.752 15.9143C141.05 16.0769 141.39 16.212 141.763 16.3196L144.197 16.9551C144.915 17.1477 145.581 17.3854 146.169 17.6606C146.734 17.9258 147.225 18.271 147.627 18.6838C148.025 19.0941 148.343 19.6045 148.573 20.1999C148.803 20.8029 148.921 21.5484 148.921 22.4165C148.921 23.3022 148.738 24.1403 148.378 24.9084C148.018 25.6739 147.477 26.3444 146.767 26.9023C146.046 27.4702 145.143 27.9255 144.085 28.2583C143.019 28.5885 141.771 28.7587 140.372 28.7587Z" fill="#46D764"/>
<path d="M166.766 28.5708C166.358 28.5708 165.891 28.5458 165.383 28.4983C164.957 28.4582 164.497 28.4007 164.004 28.3256V21.1779H157.727V28.3231C157.214 28.3982 156.739 28.4557 156.311 28.4958C155.803 28.5433 155.338 28.5683 154.928 28.5683C154.52 28.5683 154.054 28.5433 153.544 28.4958C153.121 28.4557 152.658 28.3982 152.166 28.3231V9.68457C152.596 9.597 153.026 9.53446 153.449 9.49443C153.972 9.44689 154.482 9.42188 154.963 9.42188C155.42 9.42188 155.923 9.44689 156.459 9.49443C156.886 9.53446 157.312 9.597 157.722 9.68206V16.3294H163.999V9.68457C164.429 9.597 164.86 9.53446 165.283 9.49443C165.805 9.44689 166.316 9.42188 166.796 9.42188C167.254 9.42188 167.757 9.44689 168.292 9.49443C168.72 9.53446 169.145 9.597 169.556 9.68206V28.3256C169.04 28.4007 168.567 28.4582 168.14 28.4983C167.639 28.5458 167.174 28.5708 166.766 28.5708Z" fill="#46D764"/>
<path d="M176.258 28.5708C175.85 28.5708 175.385 28.5458 174.875 28.4983C174.452 28.4582 173.989 28.4007 173.496 28.3256V9.68457C173.926 9.597 174.357 9.53446 174.78 9.49443C175.302 9.44689 175.813 9.42188 176.293 9.42188C176.751 9.42188 177.254 9.44689 177.789 9.49443C178.217 9.53446 178.642 9.597 179.053 9.68206V28.3256C178.54 28.4007 178.064 28.4582 177.637 28.4983C177.131 28.5458 176.666 28.5708 176.258 28.5708Z" fill="#46D764"/>
<path d="M197.016 28.5707C196.6 28.5707 196.132 28.5532 195.625 28.5157C195.202 28.4857 194.731 28.4256 194.219 28.3356V18.1557C194.219 16.7296 193.943 15.7214 193.38 15.0709C192.81 14.4154 191.949 14.0827 190.819 14.0827C190.526 14.0827 190.213 14.1102 189.883 14.1628C189.403 14.2403 189.25 14.3079 189.155 14.3704L188.987 14.4805V28.3331C188.474 28.4231 188.002 28.4832 187.581 28.5132C187.071 28.5507 186.616 28.5682 186.225 28.5682C185.81 28.5682 185.342 28.5507 184.834 28.5132C184.411 28.4832 183.941 28.4231 183.428 28.3331V10.5852C184.234 10.32 185.202 10.0573 186.31 9.80458C187.524 9.52688 189.065 9.38428 190.894 9.38428C191.962 9.38428 193.048 9.47685 194.116 9.65948C195.152 9.83711 196.102 10.2124 196.938 10.7753C197.764 11.3332 198.449 12.1513 198.98 13.2096C199.51 14.2728 199.78 15.7114 199.78 17.4852V28.3356C199.267 28.4256 198.794 28.4857 198.374 28.5157C197.861 28.5532 197.406 28.5707 197.016 28.5707Z" fill="#46D764"/>
<path d="M212.835 28.7582C211.101 28.7582 209.612 28.498 208.407 27.9852C207.208 27.4748 206.217 26.7743 205.462 25.9011C204.704 25.0255 204.146 23.9798 203.803 22.7939C203.453 21.5905 203.278 20.2796 203.278 18.9036C203.278 17.5851 203.49 16.3217 203.911 15.1458C204.326 13.9825 204.952 12.9592 205.77 12.1061C206.588 11.253 207.618 10.565 208.834 10.0646C210.053 9.56427 211.486 9.30908 213.097 9.30908C213.941 9.30908 214.884 9.40665 215.902 9.6018C216.848 9.78193 217.893 10.0922 219.012 10.5275C218.984 10.8327 218.944 11.1254 218.889 11.4006C218.817 11.7634 218.724 12.1361 218.616 12.5089C218.509 12.8842 218.374 13.2895 218.214 13.7148C218.086 14.06 217.941 14.4353 217.778 14.8331C217.048 14.5479 216.355 14.3327 215.714 14.1876C214.966 14.02 214.311 13.9349 213.765 13.9349C212.897 13.9349 212.142 14.07 211.524 14.3402C210.898 14.6129 210.388 14.9882 210.003 15.4536C209.622 15.9164 209.342 16.4568 209.167 17.0622C208.997 17.6526 208.909 18.2706 208.909 18.9011C208.909 20.6598 209.307 21.9808 210.09 22.8339C210.883 23.6945 212.044 24.1324 213.54 24.1324H214.589V18.5783C215.074 18.4883 215.519 18.4207 215.915 18.3807C216.387 18.3331 216.845 18.3081 217.276 18.3081C218.046 18.3081 218.959 18.4007 220 18.5833V27.4923C219.315 27.7375 218.394 28.0027 217.261 28.2854C216.002 28.5981 214.514 28.7582 212.835 28.7582Z" fill="#46D764"/>
<path d="M77.0911 28.8335C74.7494 28.8335 72.9356 28.2781 71.7022 27.1848C70.4663 26.0915 69.8408 24.2852 69.8408 21.8134V4.90357H69.8433C70.7565 4.74845 71.6696 4.6709 72.5578 4.6709C73.4459 4.6709 74.3591 4.74845 75.2723 4.90357H75.2748V9.38182H79.753C79.8406 9.81214 79.9031 10.2425 79.9432 10.6653C79.9907 11.1881 80.0157 11.6985 80.0157 12.1789C80.0157 12.6367 79.9907 13.1396 79.9432 13.6749C79.9031 14.1028 79.8406 14.5281 79.7555 14.9384H75.2723V20.615C75.2723 21.4131 75.3373 22.066 75.4649 22.5514C75.5925 23.0393 75.7826 23.4295 76.0253 23.7122C76.273 24 76.5707 24.1876 76.9335 24.2927C77.2912 24.3952 77.7215 24.4478 78.2119 24.4478C78.5997 24.4478 78.9825 24.4153 79.3552 24.3502C79.7305 24.2852 80.0583 24.2276 80.3435 24.1751H80.346V24.1776C80.5261 24.6704 80.6562 25.1858 80.7337 25.7087C80.8113 26.2366 80.8488 26.7144 80.8488 27.1247C80.8488 27.4024 80.8413 27.6451 80.8288 27.8428C80.8163 28.0354 80.7963 28.2255 80.7713 28.4032V28.4057H80.7688C79.5879 28.6909 78.3495 28.8335 77.0911 28.8335Z" fill="#14284B"/>
</svg>

