<svg viewBox="0 0 92 24" xmlns="http://www.w3.org/2000/svg"><path fill="#144862" d="M2.51.527A1.41 1.41 0 10.31 2.294l6.966 8.663v6.385a1.41 1.41 0 102.82 0V11.04l7.032-8.746A1.41 1.41 0 0014.931.527l-6.21 7.725L2.508.527zM20.29 6.592c0-.779.632-1.41 1.41-1.41 3.761 0 6.742 3.124 6.742 6.894s-2.98 6.894-6.741 6.894a1.41 1.41 0 110-2.82c2.128 0 3.921-1.786 3.921-4.074s-1.793-4.074-3.921-4.074a1.41 1.41 0 01-1.41-1.41z"/><path fill="#32BFA3" d="M21.715 8.002c-2.129 0-3.922 1.786-3.922 4.074s1.793 4.074 3.922 4.074a1.41 1.41 0 010 2.82c-3.76 0-6.742-3.124-6.742-6.894s2.981-6.894 6.742-6.894a1.41 1.41 0 010 2.82z"/><path fill="#144862" d="M35.263 6.592c0-.779.632-1.41 1.41-1.41 3.761 0 6.742 3.124 6.742 6.894s-2.981 6.894-6.742 6.894a1.41 1.41 0 110-2.82c2.129 0 3.922-1.786 3.922-4.074s-1.793-4.074-3.922-4.074a1.41 1.41 0 01-1.41-1.41z"/><path fill="#FA9856" d="M36.688 8.002c-2.129 0-3.922 1.786-3.922 4.074s1.793 4.074 3.922 4.074a1.41 1.41 0 010 2.82c-3.76 0-6.742-3.124-6.742-6.894s2.981-6.894 6.742-6.894a1.41 1.41 0 010 2.82z"/><path fill="#32BFA3" d="M50.656 6.592c0-.779.631-1.41 1.41-1.41 3.76 0 6.742 3.124 6.742 6.894s-2.981 6.894-6.742 6.894a1.41 1.41 0 110-2.82c2.129 0 3.921-1.786 3.921-4.074s-1.792-4.074-3.92-4.074a1.41 1.41 0 01-1.411-1.41z"/><path fill="#144862" d="M48.154 6.47a1.41 1.41 0 00-2.816.122V22.59a1.41 1.41 0 002.82 0v-4.904a6.6 6.6 0 003.922 1.284 1.41 1.41 0 000-2.82c-2.128 0-3.92-1.785-3.921-4.072v-.002-.001c0-2.287 1.793-4.073 3.921-4.073a1.41 1.41 0 000-2.82 6.6 6.6 0 00-3.926 1.288zM63.412 6.592a1.41 1.41 0 00-2.82 0v10.666a1.41 1.41 0 002.82 0v-5.484V6.592z"/><path fill="#FA9856" d="M63.69 1.846c0 .957-.755 1.732-1.684 1.732-.93 0-1.684-.775-1.684-1.732 0-.956.754-1.731 1.684-1.731.93 0 1.683.775 1.683 1.731z"/><path fill="#144862" d="M70.526 6.592c0-.779.632-1.41 1.41-1.41 3.519 0 6.357 2.737 6.706 6.175l.006.081.024.55a1.41 1.41 0 11-2.818.122l-.022-.506c-.227-2.058-1.915-3.602-3.895-3.602a1.41 1.41 0 01-1.41-1.41z"/><path fill="#32BFA3" d="M66.189 12.062c0-.78.631-1.41 1.41-1.41h9.678a1.41 1.41 0 110 2.82h-9.678a1.41 1.41 0 01-1.41-1.41z"/><path fill="#144862" d="M68.03 12.076c0-2.288 1.792-4.074 3.92-4.074a1.41 1.41 0 000-2.82c-3.76 0-6.74 3.124-6.74 6.894s2.98 6.894 6.74 6.894c.116 0 .227-.014.334-.04 2.297-.065 3.944-.793 5.3-2.118a1.41 1.41 0 10-1.972-2.017c-.844.826-1.858 1.32-3.675 1.32-.09 0-.178.009-.264.025-2.004-.148-3.644-1.877-3.644-4.064z"/><path fill="#FA9856" d="M84.1 6.592c0-.779.632-1.41 1.41-1.41 2.072 0 3.66.51 4.982 1.54a1.41 1.41 0 01-1.733 2.225c-.743-.579-1.689-.945-3.249-.945a1.41 1.41 0 01-1.41-1.41z"/><path fill="#144862" d="M82.862 9.27c0-.263.116-.528.586-.799.5-.288 1.251-.469 2.047-.469a1.41 1.41 0 000-2.82c-1.152 0-2.422.25-3.456.846-1.065.614-1.997 1.687-1.997 3.241 0 .845.24 1.592.703 2.207.449.595 1.04.977 1.608 1.232.996.447 2.197.612 3.046.729l.142.02.064.01c1.196.167 2.02.39 2.518.678.23.132.338.25.391.334.047.073.094.184.094.391 0 .34-.137.592-.568.832-.488.272-1.237.435-2.065.435a1.41 1.41 0 000 2.82c1.12 0 2.392-.208 3.439-.792 1.104-.615 2.014-1.703 2.014-3.295 0-.694-.174-1.34-.535-1.907-.355-.556-.842-.962-1.36-1.261-.979-.565-2.234-.842-3.466-1.018a1.457 1.457 0 00-.067-.011l-.095-.014c-.967-.135-1.786-.25-2.397-.524-.287-.129-.435-.256-.511-.357-.062-.082-.135-.22-.135-.509z"/><path fill="#FA9856" d="M80.304 14.818a1.41 1.41 0 011.994-.023c.844.826 1.858 1.32 3.676 1.32a1.41 1.41 0 010 2.82c-2.48 0-4.224-.732-5.647-2.123a1.41 1.41 0 01-.023-1.994z"/></svg>
